<mxfile host="app.diagrams.net" modified="2024-01-05T12:59:03.492Z" agent="Mozilla/5.0 (X11; Linux x86_64; rv:107.0) Gecko/20100101 Firefox/107.0" etag="nRfnfGWJctDRxy5wXqNq" version="22.1.16" type="device">
  <diagram name="Page-1" id="GEtNjjdXVUXUiFOQShyp">
    <mxGraphModel dx="1818" dy="1012" grid="1" gridSize="10" guides="1" tooltips="1" connect="1" arrows="1" fold="1" page="1" pageScale="1" pageWidth="850" pageHeight="1100" math="0" shadow="0">
      <root>
        <mxCell id="0" />
        <mxCell id="1" parent="0" />
        <mxCell id="ilsiUmANOehLyqSuM1yz-1" value="" style="ellipse;whiteSpace=wrap;html=1;aspect=fixed;" vertex="1" parent="1">
          <mxGeometry x="185" y="10" width="430" height="430" as="geometry" />
        </mxCell>
        <mxCell id="ilsiUmANOehLyqSuM1yz-7" value="" style="group" vertex="1" connectable="0" parent="1">
          <mxGeometry x="40" y="30" width="130" height="130" as="geometry" />
        </mxCell>
        <mxCell id="ilsiUmANOehLyqSuM1yz-6" value="" style="ellipse;whiteSpace=wrap;html=1;aspect=fixed;" vertex="1" parent="ilsiUmANOehLyqSuM1yz-7">
          <mxGeometry width="130" height="130" as="geometry" />
        </mxCell>
        <mxCell id="ilsiUmANOehLyqSuM1yz-2" value="" style="fontColor=#0066CC;verticalAlign=top;verticalLabelPosition=bottom;labelPosition=center;align=center;html=1;outlineConnect=0;fillColor=#CCCCCC;strokeColor=#6881B3;gradientColor=none;gradientDirection=north;strokeWidth=2;shape=mxgraph.networks.security_camera;" vertex="1" parent="ilsiUmANOehLyqSuM1yz-7">
          <mxGeometry x="15" y="25" width="100" height="80" as="geometry" />
        </mxCell>
        <mxCell id="ilsiUmANOehLyqSuM1yz-3" value="" style="endArrow=none;html=1;rounded=0;strokeWidth=6;fillColor=#f8cecc;strokeColor=#e01b24;exitX=0;exitY=1;exitDx=0;exitDy=0;entryX=1;entryY=0;entryDx=0;entryDy=0;" edge="1" parent="ilsiUmANOehLyqSuM1yz-7" source="ilsiUmANOehLyqSuM1yz-6" target="ilsiUmANOehLyqSuM1yz-6">
          <mxGeometry width="50" height="50" relative="1" as="geometry">
            <mxPoint x="-270" y="120" as="sourcePoint" />
            <mxPoint x="-150" y="30" as="targetPoint" />
          </mxGeometry>
        </mxCell>
        <mxCell id="ilsiUmANOehLyqSuM1yz-9" value="" style="verticalLabelPosition=bottom;html=1;verticalAlign=top;align=center;strokeColor=none;fillColor=#00BEF2;shape=mxgraph.azure.computer;pointerEvents=1;" vertex="1" parent="1">
          <mxGeometry x="270" y="120" width="88.89" height="80" as="geometry" />
        </mxCell>
        <mxCell id="ilsiUmANOehLyqSuM1yz-10" value="" style="verticalLabelPosition=bottom;html=1;verticalAlign=top;align=center;strokeColor=none;fillColor=#00BEF2;shape=mxgraph.azure.computer;pointerEvents=1;" vertex="1" parent="1">
          <mxGeometry x="355.55" y="290" width="88.89" height="80" as="geometry" />
        </mxCell>
        <mxCell id="ilsiUmANOehLyqSuM1yz-11" value="" style="verticalLabelPosition=bottom;html=1;verticalAlign=top;align=center;strokeColor=none;fillColor=#00BEF2;shape=mxgraph.azure.computer;pointerEvents=1;" vertex="1" parent="1">
          <mxGeometry x="440" y="120" width="88.89" height="80" as="geometry" />
        </mxCell>
        <mxCell id="ilsiUmANOehLyqSuM1yz-12" value="" style="endArrow=classic;startArrow=classic;html=1;rounded=0;entryX=0.5;entryY=1;entryDx=0;entryDy=0;entryPerimeter=0;exitX=0.281;exitY=0;exitDx=0;exitDy=0;exitPerimeter=0;" edge="1" parent="1" source="ilsiUmANOehLyqSuM1yz-10" target="ilsiUmANOehLyqSuM1yz-9">
          <mxGeometry width="50" height="50" relative="1" as="geometry">
            <mxPoint x="280" y="320" as="sourcePoint" />
            <mxPoint x="330" y="270" as="targetPoint" />
          </mxGeometry>
        </mxCell>
        <mxCell id="ilsiUmANOehLyqSuM1yz-13" value="" style="endArrow=classic;startArrow=classic;html=1;rounded=0;entryX=0.5;entryY=1;entryDx=0;entryDy=0;entryPerimeter=0;exitX=0.686;exitY=0;exitDx=0;exitDy=0;exitPerimeter=0;" edge="1" parent="1" source="ilsiUmANOehLyqSuM1yz-10" target="ilsiUmANOehLyqSuM1yz-11">
          <mxGeometry width="50" height="50" relative="1" as="geometry">
            <mxPoint x="421" y="354" as="sourcePoint" />
            <mxPoint x="344" y="210" as="targetPoint" />
          </mxGeometry>
        </mxCell>
        <mxCell id="ilsiUmANOehLyqSuM1yz-14" value="" style="endArrow=classic;startArrow=classic;html=1;rounded=0;entryX=1;entryY=0.5;entryDx=0;entryDy=0;entryPerimeter=0;exitX=0;exitY=0.5;exitDx=0;exitDy=0;exitPerimeter=0;" edge="1" parent="1" source="ilsiUmANOehLyqSuM1yz-11" target="ilsiUmANOehLyqSuM1yz-9">
          <mxGeometry width="50" height="50" relative="1" as="geometry">
            <mxPoint x="395" y="350" as="sourcePoint" />
            <mxPoint x="344" y="210" as="targetPoint" />
          </mxGeometry>
        </mxCell>
        <mxCell id="ilsiUmANOehLyqSuM1yz-15" value="&lt;div&gt;&lt;font style=&quot;font-size: 19px;&quot;&gt;cLAN&lt;br&gt;&lt;/font&gt;&lt;/div&gt;" style="text;html=1;strokeColor=none;fillColor=none;align=center;verticalAlign=middle;whiteSpace=wrap;rounded=0;fontSize=19;fontStyle=1" vertex="1" parent="1">
          <mxGeometry x="370" y="60" width="60" height="30" as="geometry" />
        </mxCell>
        <mxCell id="ilsiUmANOehLyqSuM1yz-16" value="&lt;font style=&quot;font-size: 19px;&quot;&gt;Mesh-VPN&lt;/font&gt;" style="text;html=1;strokeColor=none;fillColor=none;align=center;verticalAlign=middle;whiteSpace=wrap;rounded=0;" vertex="1" parent="1">
          <mxGeometry x="270" y="200" width="260" height="30" as="geometry" />
        </mxCell>
        <mxCell id="ilsiUmANOehLyqSuM1yz-18" value="&lt;font style=&quot;font-size: 18px;&quot;&gt;Machine&lt;/font&gt;" style="text;html=1;strokeColor=none;fillColor=none;align=center;verticalAlign=middle;whiteSpace=wrap;rounded=0;" vertex="1" parent="1">
          <mxGeometry x="284.45" y="140" width="60" height="30" as="geometry" />
        </mxCell>
        <mxCell id="ilsiUmANOehLyqSuM1yz-19" value="&lt;font style=&quot;font-size: 18px;&quot;&gt;Machine&lt;/font&gt;" style="text;html=1;strokeColor=none;fillColor=none;align=center;verticalAlign=middle;whiteSpace=wrap;rounded=0;" vertex="1" parent="1">
          <mxGeometry x="454.45000000000005" y="140" width="60" height="30" as="geometry" />
        </mxCell>
        <mxCell id="ilsiUmANOehLyqSuM1yz-20" value="&lt;font style=&quot;font-size: 18px;&quot;&gt;Machine&lt;/font&gt;" style="text;html=1;strokeColor=none;fillColor=none;align=center;verticalAlign=middle;whiteSpace=wrap;rounded=0;" vertex="1" parent="1">
          <mxGeometry x="370" y="310" width="60" height="30" as="geometry" />
        </mxCell>
      </root>
    </mxGraphModel>
  </diagram>
</mxfile>
